<svg width="22" height="17" viewBox="0 0 22 17" fill="none" xmlns="http://www.w3.org/2000/svg">
<path d="M21.4183 2.4732C21.3305 2.0311 21.1326 1.61324 20.8438 1.26195C20.7851 1.18819 20.7238 1.12258 20.6567 1.05602C20.1429 0.541312 19.4282 0.246094 18.6958 0.246094H3.12126C2.38067 0.246094 1.68415 0.533871 1.15999 1.05631C1.09365 1.12225 1.03214 1.18852 0.971247 1.26462C0.683694 1.61443 0.486615 2.03171 0.400926 2.47444C0.365116 2.6483 0.347046 2.82844 0.347046 3.01069V13.9108C0.347046 14.29 0.424359 14.6592 0.577625 15.0103C0.710263 15.322 0.911509 15.6176 1.15983 15.8649C1.22237 15.9269 1.2845 15.9841 1.35084 16.0399C1.84732 16.4496 2.47597 16.6751 3.12126 16.6751H18.6958C19.3452 16.6751 19.9733 16.4488 20.4684 16.0354C20.5346 15.9821 20.5959 15.926 20.6573 15.8649C20.8973 15.6259 21.0881 15.3514 21.2252 15.0487L21.2433 15.0055C21.3937 14.6611 21.4701 14.293 21.4701 13.9108V3.01069C21.4701 2.83083 21.4526 2.64949 21.4183 2.4732ZM1.7837 2.01042C1.82293 1.95319 1.87302 1.89444 1.93692 1.83027C2.25414 1.51433 2.67483 1.34047 3.12121 1.34047H18.6957C19.146 1.34047 19.5668 1.51462 19.8805 1.83088C19.9347 1.88544 19.9865 1.946 20.0316 2.00651L20.1507 2.16602L11.8376 9.38578C11.5814 9.60967 11.2514 9.73288 10.9084 9.73288C10.5689 9.73288 10.2392 9.60996 9.97984 9.38607L1.67507 2.16808L1.7837 2.01042ZM1.45085 14.007C1.44635 13.9773 1.44532 13.9443 1.44532 13.9108V3.23639L7.8965 8.84439L1.51042 14.3928L1.45085 14.007ZM19.5269 15.3607C19.2772 15.5042 18.9896 15.5804 18.6958 15.5804H3.12126C2.82723 15.5804 2.5398 15.5042 2.29028 15.3607L2.02921 15.2099L8.62751 9.47984L9.35065 10.1066C9.78441 10.4819 10.3376 10.6888 10.9085 10.6888C11.4816 10.6888 12.0356 10.4819 12.4691 10.1066L13.1919 9.47956L19.788 15.2102L19.5269 15.3607ZM20.3715 13.9108C20.3715 13.9438 20.3709 13.9764 20.3667 14.0055L20.3095 14.3949L13.9207 8.84739L20.3715 3.2391V13.9108Z" fill="#A19A9A"/>
</svg>
