<svg width="27" height="16" viewBox="0 0 27 16" fill="none" xmlns="http://www.w3.org/2000/svg">
<path d="M25.5152 15.3797C24.6115 15.9458 20.9352 16.1142 20.0455 15.4677C19.5573 15.1133 19.111 14.6695 18.6869 14.2475C18.3908 13.9521 18.0539 13.8087 17.7993 13.4883C17.5919 13.2258 17.4492 12.9164 17.23 12.6582C16.8606 12.2237 16.2913 11.8543 15.8407 12.385C15.163 13.1829 15.9476 14.7514 15.0435 15.3479C14.7403 15.5481 14.4345 15.606 14.0558 15.5774L13.2168 15.6157C12.7237 15.6254 11.943 15.6297 11.3827 15.5284C10.7568 15.4158 10.2408 15.0739 9.67576 14.8229C8.60221 14.3469 7.57908 13.6982 6.80091 12.7995C4.68313 10.3524 1.83831 6.9865 0.733289 3.90959C0.505489 3.27733 -0.0942276 2.02605 0.474735 1.48355C1.24861 0.921379 5.04825 0.762241 5.64046 1.63231C5.88149 1.98528 6.03312 2.50346 6.20334 2.90363C6.41505 3.40286 6.5302 3.87383 6.86135 4.31584C7.15459 4.70815 7.3713 5.10223 7.59839 5.53244C7.85337 6.01486 8.09368 6.47761 8.40373 6.92213C8.61401 7.22431 9.1701 7.82474 9.52127 7.8698C10.3788 7.97959 10.3252 5.89542 10.2615 5.38618C10.2007 4.89589 10.1846 4.37592 10.2007 3.87848C10.2147 3.45435 10.253 2.85678 10.0015 2.51025C9.59208 1.94522 8.68017 2.36828 8.60865 1.60907C8.75956 1.39343 8.72737 1.20211 9.7337 0.870956C10.5258 0.610256 11.0376 0.618481 11.56 0.660321C12.6257 0.745791 13.7554 0.457197 14.7836 0.802652C15.7656 1.13344 15.6139 2.52921 15.581 3.36602C15.537 4.5086 15.5839 5.62328 15.581 6.7823C15.5796 7.3105 15.5589 7.82367 16.2018 7.78111C16.8055 7.7407 16.8666 7.23325 17.1545 6.81413C17.5554 6.23015 17.9227 5.6383 18.3307 5.0561C18.8804 4.26971 19.0459 3.38605 19.5634 2.58035C19.7487 2.29175 19.9078 1.662 20.1928 1.4342C20.4088 1.26218 20.8186 1.33585 21.0797 1.33585H21.7005C22.1761 1.34157 22.6611 1.34837 23.1492 1.36553C23.8526 1.38985 24.6404 1.23715 25.3381 1.3355C28.3478 1.76034 21.5553 8.19845 21.9086 9.3471C22.1532 10.1403 23.7024 11.029 24.2617 11.6791C25.0074 12.5438 27.2929 14.2671 25.5152 15.3797Z" fill="#A19A9A"/>
</svg>
