<svg width="23" height="23" viewBox="0 0 23 23" fill="none" xmlns="http://www.w3.org/2000/svg">
<path d="M6.97271 0.18539C5.78652 0.241355 4.97648 0.430653 4.26834 0.708914C3.53544 0.994534 2.91425 1.37781 2.29619 1.9981C1.67812 2.61839 1.29752 3.24002 1.0139 3.97403C0.739431 4.68373 0.553476 5.49443 0.501079 6.68128C0.448681 7.86813 0.437087 8.24962 0.442884 11.2771C0.448681 14.3045 0.462059 14.684 0.519585 15.8733C0.576219 17.0592 0.764849 17.869 1.04311 18.5774C1.32918 19.3103 1.71201 19.9312 2.33253 20.5495C2.95305 21.1678 3.57424 21.5475 4.31003 21.8316C5.01907 22.1056 5.83 22.2925 7.01663 22.3444C8.20326 22.3964 8.58521 22.4084 11.6118 22.4026C14.6383 22.3968 15.0194 22.3834 16.2085 22.327C17.3975 22.2706 18.2031 22.0806 18.9117 21.8037C19.6446 21.517 20.266 21.1348 20.8839 20.5141C21.5017 19.8933 21.8821 19.2713 22.1655 18.5368C22.4402 17.8278 22.6268 17.0169 22.6783 15.8311C22.7303 14.6412 22.7425 14.2612 22.7367 11.2342C22.7309 8.20726 22.7173 7.82777 22.6609 6.63892C22.6045 5.45006 22.4156 4.6427 22.1376 3.93389C21.8511 3.201 21.4687 2.58049 20.8484 1.96176C20.2281 1.34303 19.6056 0.962873 18.8714 0.680152C18.1619 0.405681 17.3514 0.218612 16.1648 0.16733C14.9781 0.116048 14.5962 0.102893 11.5685 0.10869C8.54084 0.114487 8.16179 0.127419 6.97271 0.18539ZM7.10292 20.3388C6.01595 20.2916 5.42576 20.111 5.03244 19.9598C4.51159 19.7591 4.14057 19.5165 3.7486 19.1283C3.35662 18.7402 3.11582 18.3678 2.91247 17.8481C2.75974 17.4548 2.57579 16.8652 2.52495 15.7783C2.46966 14.6035 2.45806 14.2507 2.4516 11.2744C2.44513 8.298 2.4565 7.94572 2.50801 6.77046C2.55438 5.6844 2.7361 5.09354 2.88705 4.70045C3.08772 4.17893 3.32942 3.80859 3.7185 3.41684C4.10758 3.02508 4.47882 2.78383 4.999 2.58049C5.39187 2.42709 5.98139 2.2447 7.06791 2.19298C8.24362 2.13723 8.59591 2.12609 11.5719 2.11962C14.5478 2.11315 14.901 2.1243 16.0771 2.17603C17.1632 2.2233 17.7543 2.40323 18.1469 2.55507C18.668 2.75574 19.0388 2.99677 19.4306 3.38651C19.8223 3.77626 20.0638 4.14616 20.2671 4.66745C20.4208 5.0592 20.6031 5.6485 20.6544 6.73568C20.7104 7.91138 20.7231 8.26389 20.7285 11.2396C20.7338 14.2153 20.7233 14.5687 20.6718 15.7435C20.6243 16.8305 20.4442 17.4209 20.2928 17.8146C20.0921 18.3353 19.8502 18.7065 19.4609 19.098C19.0716 19.4896 18.7008 19.7308 18.1804 19.9341C17.788 20.0873 17.1978 20.2702 16.1121 20.3219C14.9364 20.3772 14.5841 20.3888 11.6071 20.3952C8.63002 20.4017 8.27885 20.3897 7.10314 20.3388M16.1913 5.29733C16.1917 5.56194 16.2706 5.82047 16.418 6.04024C16.5654 6.26 16.7747 6.43112 17.0193 6.53195C17.264 6.63279 17.533 6.6588 17.7924 6.60672C18.0519 6.55463 18.29 6.42678 18.4768 6.23933C18.6636 6.05188 18.7905 5.81325 18.8417 5.55363C18.8928 5.29401 18.8658 5.02505 18.7641 4.78078C18.6623 4.5365 18.4905 4.32789 18.2702 4.18131C18.0499 4.03473 17.791 3.95678 17.5264 3.9573C17.1717 3.95801 16.8318 4.09958 16.5814 4.35087C16.331 4.60216 16.1907 4.9426 16.1913 5.29733ZM5.86567 11.2668C5.87192 14.4285 8.43961 16.9856 11.6006 16.9796C14.7616 16.9736 17.3206 14.4062 17.3146 11.2445C17.3086 8.08284 14.7402 5.52498 11.5788 5.53122C8.41731 5.53746 5.85965 8.10558 5.86567 11.2668ZM7.87372 11.2628C7.87226 10.5278 8.08879 9.80888 8.49592 9.19695C8.90306 8.58503 9.4825 8.10757 10.161 7.82496C10.8395 7.54235 11.5865 7.46727 12.3077 7.60924C13.0288 7.7512 13.6917 8.10382 14.2124 8.6225C14.7332 9.14119 15.0884 9.80264 15.2333 10.5232C15.3781 11.2438 15.306 11.9911 15.026 12.6707C14.7461 13.3503 14.2709 13.9317 13.6606 14.3412C13.0503 14.7508 12.3323 14.9701 11.5973 14.9716C11.1092 14.9726 10.6258 14.8775 10.1745 14.6917C9.72325 14.5058 9.31301 14.2329 8.96724 13.8885C8.62146 13.5441 8.34692 13.1349 8.15929 12.6844C7.97166 12.2339 7.87462 11.7508 7.87372 11.2628Z" fill="#A19A9A"/>
</svg>
