<svg width="278" height="43" viewBox="0 0 278 43" fill="none" xmlns="http://www.w3.org/2000/svg">
<path d="M10.955 34.42C8.995 34.42 7.11667 34.1633 5.32 33.65C3.52333 33.1133 2.07667 32.425 0.98 31.585L2.905 27.315C3.955 28.0617 5.19167 28.68 6.615 29.17C8.06167 29.6367 9.52 29.87 10.99 29.87C12.11 29.87 13.0083 29.765 13.685 29.555C14.385 29.3217 14.8983 29.0067 15.225 28.61C15.5517 28.2133 15.715 27.7583 15.715 27.245C15.715 26.5917 15.4583 26.0783 14.945 25.705C14.4317 25.3083 13.755 24.9933 12.915 24.76C12.075 24.5033 11.1417 24.27 10.115 24.06C9.11167 23.8267 8.09667 23.5467 7.07 23.22C6.06667 22.8933 5.145 22.4733 4.305 21.96C3.465 21.4467 2.77667 20.77 2.24 19.93C1.72667 19.09 1.47 18.0167 1.47 16.71C1.47 15.31 1.84333 14.0383 2.59 12.895C3.36 11.7283 4.50333 10.8067 6.02 10.13C7.56 9.43 9.485 9.08 11.795 9.08C13.335 9.08 14.8517 9.26667 16.345 9.64C17.8383 9.99 19.1567 10.5267 20.3 11.25L18.55 15.555C17.4067 14.9017 16.2633 14.4233 15.12 14.12C13.9767 13.7933 12.8567 13.63 11.76 13.63C10.6633 13.63 9.765 13.7583 9.065 14.015C8.365 14.2717 7.86333 14.61 7.56 15.03C7.25667 15.4267 7.105 15.8933 7.105 16.43C7.105 17.06 7.36167 17.5733 7.875 17.97C8.38833 18.3433 9.065 18.6467 9.905 18.88C10.745 19.1133 11.6667 19.3467 12.67 19.58C13.6967 19.8133 14.7117 20.0817 15.715 20.385C16.7417 20.6883 17.675 21.0967 18.515 21.61C19.355 22.1233 20.0317 22.8 20.545 23.64C21.0817 24.48 21.35 25.5417 21.35 26.825C21.35 28.2017 20.965 29.4617 20.195 30.605C19.425 31.7483 18.27 32.67 16.73 33.37C15.2133 34.07 13.2883 34.42 10.955 34.42ZM29.9575 34V14.12H22.1175V9.5H43.4675V14.12H35.6275V34H29.9575ZM42.0678 34L52.9878 9.5H58.5878L69.5428 34H63.5928L54.6328 12.37H56.8728L47.8778 34H42.0678ZM47.5278 28.75L49.0328 24.445H61.6328L63.1728 28.75H47.5278ZM72.0847 34V9.5H82.6897C84.883 9.5 86.773 9.86167 88.3597 10.585C89.9464 11.285 91.1714 12.3 92.0347 13.63C92.898 14.96 93.3297 16.5467 93.3297 18.39C93.3297 20.21 92.898 21.785 92.0347 23.115C91.1714 24.4217 89.9464 25.425 88.3597 26.125C86.773 26.825 84.883 27.175 82.6897 27.175H75.2347L77.7547 24.69V34H72.0847ZM87.6597 34L81.5347 25.11H87.5897L93.7847 34H87.6597ZM77.7547 25.32L75.2347 22.66H82.3747C84.1247 22.66 85.4314 22.2867 86.2947 21.54C87.158 20.77 87.5897 19.72 87.5897 18.39C87.5897 17.0367 87.158 15.9867 86.2947 15.24C85.4314 14.4933 84.1247 14.12 82.3747 14.12H75.2347L77.7547 11.425V25.32ZM102.555 34V14.12H94.7152V9.5H116.065V14.12H108.225V34H102.555ZM129.591 34.42C126.114 34.42 123.396 33.4517 121.436 31.515C119.476 29.5783 118.496 26.8133 118.496 23.22V9.5H124.166V23.01C124.166 25.3433 124.644 27.0233 125.601 28.05C126.557 29.0767 127.899 29.59 129.626 29.59C131.352 29.59 132.694 29.0767 133.651 28.05C134.607 27.0233 135.086 25.3433 135.086 23.01V9.5H140.686V23.22C140.686 26.8133 139.706 29.5783 137.746 31.515C135.786 33.4517 133.067 34.42 129.591 34.42ZM146.289 34V9.5H156.894C159.087 9.5 160.977 9.86167 162.564 10.585C164.15 11.285 165.375 12.3 166.239 13.63C167.102 14.96 167.534 16.5467 167.534 18.39C167.534 20.21 167.102 21.785 166.239 23.115C165.375 24.445 164.15 25.4717 162.564 26.195C160.977 26.895 159.087 27.245 156.894 27.245H149.439L151.959 24.69V34H146.289ZM151.959 25.32L149.439 22.625H156.579C158.329 22.625 159.635 22.2517 160.499 21.505C161.362 20.7583 161.794 19.72 161.794 18.39C161.794 17.0367 161.362 15.9867 160.499 15.24C159.635 14.4933 158.329 14.12 156.579 14.12H149.439L151.959 11.425V25.32ZM189.886 34.42C187.926 34.42 186.047 34.1633 184.251 33.65C182.454 33.1133 181.007 32.425 179.911 31.585L181.836 27.315C182.886 28.0617 184.122 28.68 185.546 29.17C186.992 29.6367 188.451 29.87 189.921 29.87C191.041 29.87 191.939 29.765 192.616 29.555C193.316 29.3217 193.829 29.0067 194.156 28.61C194.482 28.2133 194.646 27.7583 194.646 27.245C194.646 26.5917 194.389 26.0783 193.876 25.705C193.362 25.3083 192.686 24.9933 191.846 24.76C191.006 24.5033 190.072 24.27 189.046 24.06C188.042 23.8267 187.027 23.5467 186.001 23.22C184.997 22.8933 184.076 22.4733 183.236 21.96C182.396 21.4467 181.707 20.77 181.171 19.93C180.657 19.09 180.401 18.0167 180.401 16.71C180.401 15.31 180.774 14.0383 181.521 12.895C182.291 11.7283 183.434 10.8067 184.951 10.13C186.491 9.43 188.416 9.08 190.726 9.08C192.266 9.08 193.782 9.26667 195.276 9.64C196.769 9.99 198.087 10.5267 199.231 11.25L197.481 15.555C196.337 14.9017 195.194 14.4233 194.051 14.12C192.907 13.7933 191.787 13.63 190.691 13.63C189.594 13.63 188.696 13.7583 187.996 14.015C187.296 14.2717 186.794 14.61 186.491 15.03C186.187 15.4267 186.036 15.8933 186.036 16.43C186.036 17.06 186.292 17.5733 186.806 17.97C187.319 18.3433 187.996 18.6467 188.836 18.88C189.676 19.1133 190.597 19.3467 191.601 19.58C192.627 19.8133 193.642 20.0817 194.646 20.385C195.672 20.6883 196.606 21.0967 197.446 21.61C198.286 22.1233 198.962 22.8 199.476 23.64C200.012 24.48 200.281 25.5417 200.281 26.825C200.281 28.2017 199.896 29.4617 199.126 30.605C198.356 31.7483 197.201 32.67 195.661 33.37C194.144 34.07 192.219 34.42 189.886 34.42ZM209.37 19.37H221.165V23.78H209.37V19.37ZM209.79 29.45H223.125V34H204.155V9.5H222.67V14.05H209.79V29.45ZM232.851 19.37H244.646V23.78H232.851V19.37ZM233.271 29.45H246.606V34H227.636V9.5H246.151V14.05H233.271V29.45ZM251.118 34V9.5H262.248C264.908 9.5 267.253 10.0133 269.283 11.04C271.313 12.0433 272.9 13.455 274.043 15.275C275.186 17.095 275.758 19.2533 275.758 21.75C275.758 24.2233 275.186 26.3817 274.043 28.225C272.9 30.045 271.313 31.4683 269.283 32.495C267.253 33.4983 264.908 34 262.248 34H251.118ZM256.788 29.345H261.968C263.601 29.345 265.013 29.0417 266.203 28.435C267.416 27.805 268.35 26.9183 269.003 25.775C269.68 24.6317 270.018 23.29 270.018 21.75C270.018 20.1867 269.68 18.845 269.003 17.725C268.35 16.5817 267.416 15.7067 266.203 15.1C265.013 14.47 263.601 14.155 261.968 14.155H256.788V29.345Z" fill="#D0FF49"/>
</svg>
