<svg width="19" height="24" viewBox="0 0 19 24" fill="none" xmlns="http://www.w3.org/2000/svg">
<path d="M17.4335 20.6579C17.344 20.9841 17.1778 21.2998 16.9306 21.5845C16.6835 21.8693 16.3949 22.1237 16.0464 22.343C15.4577 22.7129 14.86 22.9347 14.2321 23.0126C13.6135 23.093 12.9783 23.0524 12.3291 22.8819C11.3831 22.6335 10.4318 22.1506 9.48707 21.4266C8.54231 20.7026 7.63981 19.8246 6.78884 18.795C5.92252 17.742 5.13831 16.6271 4.44285 15.4595C3.75804 14.2909 3.16477 13.0735 2.66813 11.8175C2.19101 10.585 1.86228 9.39148 1.698 8.25085C1.53621 7.10116 1.58458 6.05521 1.84311 5.11302C2.01215 4.49698 2.28502 3.93733 2.65676 3.45221C3.03098 2.95804 3.52262 2.54325 4.13846 2.21936C4.88863 1.80448 5.61491 1.69412 6.30122 1.87435C6.56091 1.94255 6.80568 2.0651 7.00771 2.2347C7.21901 2.40674 7.38758 2.62583 7.48989 2.90521L8.8287 6.43272C8.9335 6.70305 8.99689 6.94308 9.02567 7.16431C9.05694 7.37648 9.05111 7.5789 9.00388 7.75104C8.94422 7.96846 8.81964 8.16884 8.63262 8.34312C8.45488 8.51982 8.219 8.69098 7.93676 8.84995L7.03551 9.38056C6.90615 9.45342 6.82746 9.55902 6.78769 9.70397C6.7678 9.77644 6.75968 9.8423 6.75834 9.91964C6.76628 9.99943 6.77918 10.0611 6.78282 10.1203C6.86773 10.4631 7.04834 10.9282 7.32716 11.5064C7.61525 12.0871 7.92867 12.6842 8.2792 13.291C8.64827 13.9027 9.00874 14.4732 9.38842 15.01C9.76132 15.5353 10.0855 15.9118 10.3561 16.1577C10.3975 16.1879 10.4457 16.2297 10.5032 16.274C10.5699 16.3206 10.6416 16.3492 10.7251 16.3711C10.8828 16.4125 11.0183 16.3898 11.1476 16.3169L12.0389 15.8226C12.3329 15.657 12.6027 15.5433 12.8459 15.4906C13.094 15.4198 13.3247 15.4124 13.5566 15.4733C13.7328 15.5195 13.9083 15.6045 14.09 15.7396C14.2717 15.8747 14.4527 16.0485 14.6423 16.2634L17.128 19.1986C17.3243 19.425 17.4391 19.659 17.479 19.9123C17.5096 20.1632 17.5031 20.4043 17.4335 20.6579Z" stroke="#A19A9A" stroke-width="1.76025" stroke-miterlimit="10"/>
</svg>
