<svg width="23" height="19" viewBox="0 0 23 19" fill="none" xmlns="http://www.w3.org/2000/svg">
<path fill-rule="evenodd" clip-rule="evenodd" d="M2.23197 8.03004C7.95849 5.52509 11.7864 3.90604 13.685 3.11179C19.1359 0.851228 20.269 0.454102 21.0039 0.454102C21.1571 0.454102 21.5245 0.48465 21.7695 0.667939C21.9533 0.820679 22.0145 1.03452 22.0451 1.18726C22.0758 1.34 22.1064 1.67603 22.0758 1.95096C21.7695 5.03632 20.514 12.5817 19.8403 16.0336C19.5647 17.5 19.0134 17.9887 18.4928 18.0498C17.3598 18.1415 16.4717 17.2861 15.3693 16.5835C13.6544 15.4532 12.6745 14.7506 10.9902 13.6509C9.06092 12.3679 10.3165 11.6653 11.4189 10.535C11.6945 10.2295 16.7473 5.67783 16.8392 5.25016C16.8392 5.18906 16.8698 5.00577 16.7473 4.91413C16.6248 4.82248 16.4717 4.85303 16.3492 4.88358C16.1655 4.91413 13.4094 6.74702 8.05036 10.3517C7.25416 10.9016 6.54983 11.1459 5.90674 11.1459C5.20241 11.1459 3.85499 10.7488 2.84443 10.4128C1.61951 10.0157 0.639567 9.80183 0.731437 9.12977C0.823306 8.76319 1.31328 8.39662 2.23197 8.03004Z" fill="#A19A9A"/>
</svg>
